<svg xmlns="http://www.w3.org/2000/svg" width="30.468" height="30.47" viewBox="0 0 30.468 30.47"><defs><style>.a{fill:#fff;}</style></defs><g transform="translate(14.342 -0.089) rotate(42)"><g transform="translate(0.134 0)"><path class="a" d="M21.415.05a.5.5,0,0,0-.568.091,26.167,26.167,0,0,1-6.081,4.269.5.5,0,0,0-.257.324,10.883,10.883,0,0,1-1.394,3.061l-.279.443.52-2.266a.5.5,0,0,0-.689-.577l-.06.025C6.7,7.907,4.952,11.76,4.437,13.835a8.665,8.665,0,0,0-.265,2.12,6.6,6.6,0,0,0,.044.754L.278,20.725a.5.5,0,0,0,.7.729L11.8,11.734c.053,0-6.162,6.514-6.106,6.514a7.8,7.8,0,0,0,3.37-1.124,30.551,30.551,0,0,0,5.931-4.4.5.5,0,0,0-.455-.862l-1.267.291.443-.279A10.257,10.257,0,0,1,17.146,10.4a.5.5,0,0,0,.289-.169,18.275,18.275,0,0,0,3.93-7.637A15.119,15.119,0,0,0,21.7.55.5.5,0,0,0,21.415.05Z" transform="translate(-0.134 0)"/></g></g></svg>